<?xml version="1.0" standalone="no"?>
<!DOCTYPE svg PUBLIC "-//W3C//DTD SVG 20010904//EN"
 "http://www.w3.org/TR/2001/REC-SVG-20010904/DTD/svg10.dtd">
<svg version="1.0" xmlns="http://www.w3.org/2000/svg"
 width="1024.000000pt" height="1024.000000pt" viewBox="0 0 1024.000000 1024.000000"
 preserveAspectRatio="xMidYMid meet">

<g transform="translate(0.000000,1024.000000) scale(0.100000,-0.100000)"
fill="#ffffff" stroke="none">
<path d="M3991 8295 l-65 -35 -23 22 c-12 11 -20 25 -16 31 3 6 1 7 -6 3 -6
-4 -8 -12 -5 -18 4 -7 2 -8 -4 -4 -7 4 -39 -13 -74 -40 -81 -61 -302 -267
-331 -308 l-22 -31 45 36 c119 96 364 238 530 310 69 29 97 46 93 55 -9 23
-55 15 -122 -21z"/>
<path d="M4170 8223 c-8 -3 -89 -43 -180 -88 -262 -131 -374 -201 -560 -351
-175 -140 -175 -140 -234 -259 -73 -149 -118 -283 -162 -483 -35 -154 -38
-182 -42 -367 -2 -110 0 -197 4 -192 4 4 16 39 26 79 42 167 176 381 353 567
203 212 503 420 860 595 127 63 267 128 313 146 45 18 82 34 82 35 0 2 -7 6
-16 9 -8 3 -13 2 -10 -3 7 -10 -97 -1 -104 10 -7 10 -204 -68 -365 -145 l-117
-56 -29 25 -29 24 42 24 c188 106 255 141 336 178 l92 42 -52 19 c-29 11 -62
19 -72 19 -11 0 -27 8 -35 17 -9 9 -24 18 -33 20 -19 3 -247 -109 -383 -188
-72 -43 -98 -53 -130 -51 -22 1 -41 4 -43 6 -6 6 181 127 268 173 41 22 115
57 164 77 117 48 127 55 119 80 -5 19 -32 45 -43 44 -3 0 -12 -3 -20 -6z"/>
<path d="M5718 7924 c-244 -25 -634 -102 -828 -162 -197 -62 -598 -226 -677
-277 -12 -8 -60 -35 -108 -60 -345 -180 -687 -475 -842 -723 -219 -354 -225
-672 -18 -1034 179 -313 499 -618 828 -788 l117 -61 -28 45 c-42 66 -58 150
-44 234 31 184 184 363 500 585 98 69 528 332 714 437 43 24 75 46 73 49 -10
9 -390 0 -402 -11 -7 -5 -26 -7 -42 -3 -54 12 -101 -14 -198 -109 -90 -87 -92
-91 -87 -127 4 -20 2 -39 -3 -42 -18 -11 -53 5 -53 25 0 10 -4 16 -10 13 -5
-3 -10 -2 -10 3 0 4 15 15 32 23 28 12 208 203 208 220 0 4 -40 41 -90 83
l-90 77 -30 -21 c-46 -33 -76 -80 -90 -140 -19 -84 -48 -155 -71 -176 l-21
-19 20 35 c29 49 64 165 66 221 3 55 16 75 64 94 18 8 32 18 30 22 -1 5 -30
43 -63 85 l-60 77 -156 1 c-155 0 -156 0 -167 -24 -6 -13 -19 -27 -29 -31 -29
-11 -138 -145 -172 -214 -36 -70 -49 -77 -27 -13 20 56 75 139 124 185 37 36
39 41 29 68 -24 63 -34 62 403 60 267 -1 390 2 378 9 -19 11 -69 115 -94 194
-17 53 -18 54 -62 60 -25 3 -230 6 -456 6 l-411 0 -22 -35 c-22 -32 -153 -149
-160 -141 -2 2 33 39 77 83 44 45 80 89 80 100 0 20 -70 93 -107 112 -12 6
-37 12 -55 12 l-33 1 30 7 c37 9 53 1 131 -60 l62 -49 443 0 c244 0 449 4 454
8 6 4 10 27 11 52 1 71 54 225 95 276 5 6 6 14 2 17 -3 4 -120 7 -259 7 l-253
0 -57 70 c-51 61 -62 70 -91 70 -19 0 -36 6 -39 13 -7 20 13 67 29 67 21 0 67
-39 67 -57 0 -9 27 -42 59 -74 l59 -59 288 0 289 0 50 27 c111 59 247 70 337
29 29 -14 68 -30 87 -37 18 -7 60 -32 91 -55 48 -35 65 -56 97 -120 34 -70 38
-86 37 -149 -3 -175 -116 -366 -259 -439 -85 -44 -155 -58 -245 -50 -74 7
-105 -2 -90 -26 8 -12 37 -15 157 -15 141 0 151 2 203 28 30 15 64 27 74 27
32 0 7 -16 -69 -46 -62 -24 -87 -28 -218 -32 -167 -5 -167 -5 -214 75 -17 30
-29 40 -40 36 -10 -4 -14 -2 -10 4 10 16 -67 23 -250 23 l-165 0 33 -41 c18
-23 82 -91 142 -151 80 -79 114 -107 126 -102 25 10 154 14 166 4 6 -5 112
-10 235 -11 l225 -1 140 82 c486 287 919 636 1067 860 123 187 158 369 98 508
-26 61 -117 150 -188 186 -187 93 -511 127 -864 90z m67 -127 c12 -10 16 -22
13 -40 -4 -22 3 -34 41 -69 25 -23 69 -62 96 -87 127 -116 135 -122 155 -111
34 18 76 12 104 -16 l26 -27 83 12 c45 6 98 11 118 11 22 0 47 8 63 21 27 21
46 18 46 -6 0 -19 -27 -31 -75 -34 -22 -1 -67 -6 -100 -11 -33 -6 -76 -10 -96
-10 -28 0 -40 -6 -58 -31 -35 -47 -63 -56 -104 -32 l-34 20 -58 -24 -59 -25
-28 34 c-42 49 -52 68 -35 68 8 0 22 -9 32 -20 23 -26 115 -28 139 -4 26 26
23 31 -54 94 -30 25 -94 82 -142 126 -94 90 -126 103 -246 105 -114 2 -109 17
6 18 103 1 112 2 112 20 0 17 11 27 31 30 3 1 13 -5 24 -12z m444 -43 c9 -8
-33 -44 -51 -44 -24 0 -34 26 -18 45 11 13 53 12 69 -1z m152 -44 c26 -15 24
-38 -6 -52 -48 -22 -102 25 -57 51 22 13 39 13 63 1z m-1421 -50 c0 -11 -4
-20 -9 -20 -14 0 -23 18 -16 30 10 17 25 11 25 -10z m-321 -124 c13 -12 86
-13 446 -7 l430 7 40 -45 c22 -25 96 -105 164 -178 113 -120 125 -131 146
-121 29 13 63 -4 71 -37 6 -24 8 -25 104 -25 53 0 151 -3 217 -6 106 -6 121
-5 134 10 47 57 49 58 72 43 27 -17 33 -55 13 -82 -13 -18 -18 -18 -48 -7 -24
8 -107 12 -265 12 -196 0 -232 -2 -237 -15 -7 -19 -66 -20 -91 -1 -12 9 -19
26 -19 48 0 31 -16 52 -157 199 l-156 164 -129 2 c-71 1 -269 3 -440 3 l-311
0 -11 25 c-13 29 1 34 27 11z m-649 -393 c12 -15 19 -35 17 -44 -3 -12 1 -17
13 -16 29 2 80 -45 77 -72 -4 -41 -25 -35 -84 26 -32 32 -69 66 -82 74 -21 13
-22 18 -12 37 16 30 45 28 71 -5z m1729 -158 l0 -20 -8 20 c-4 11 -11 34 -14
50 l-6 30 14 -30 c8 -16 14 -39 14 -50z m-1436 -12 c-18 -2 -48 -2 -65 0 -18
2 -4 4 32 4 36 0 50 -2 33 -4z m90 0 c-7 -2 -21 -2 -30 0 -10 3 -4 5 12 5 17
0 24 -2 18 -5z m1901 -46 c8 -14 8 -20 -4 -27 -8 -5 -17 -10 -20 -10 -11 0
-30 41 -24 51 9 15 35 7 48 -14z m-252 -92 c20 -44 -29 -77 -52 -35 -8 14 -8
26 0 40 15 27 38 25 52 -5z m-2378 -194 c16 -18 16 -20 -5 -35 -24 -17 -39
-13 -39 10 0 8 10 15 23 15 l22 2 -23 4 c-12 2 -20 9 -17 14 9 14 20 11 39
-10z m1936 -237 c0 -2 -9 0 -20 6 -11 6 -20 13 -20 16 0 2 9 0 20 -6 11 -6 20
-13 20 -16z m-743 -79 c53 -53 93 -98 89 -102 -7 -7 -171 150 -187 180 -19 33
3 16 98 -78z m794 38 c13 -16 12 -17 -3 -4 -10 7 -18 15 -18 17 0 8 8 3 21
-13z"/>
<path d="M7237 7075 c3 -33 7 -62 9 -64 7 -8 2 63 -7 94 -5 20 -6 9 -2 -30z"/>
<path d="M7252 6932 c-1 -40 -6 -82 -12 -92 -6 -11 -7 -33 -2 -57 l9 -38 7 45
c4 25 6 83 4 130 l-4 85 -2 -73z"/>
<path d="M7069 6908 c-26 -56 -128 -213 -187 -288 -57 -72 -240 -256 -332
-334 -261 -223 -610 -436 -1230 -751 -228 -116 -460 -239 -515 -273 -60 -37
-86 -50 -65 -32 42 37 215 149 620 401 488 305 766 492 755 510 -4 5 0 6 8 3
8 -3 18 -1 22 5 3 6 -2 14 -12 17 -48 17 -93 39 -93 46 0 4 4 8 9 8 5 0 12 7
15 16 6 15 4 15 -16 2 -188 -122 -469 -288 -489 -288 -46 0 -15 27 169 145
219 142 237 155 199 148 -19 -4 -25 0 -30 18 -3 13 -1 30 6 38 10 12 9 12 -10
1 -12 -8 -19 -18 -16 -24 3 -5 1 -6 -5 -2 -7 4 -38 -10 -69 -32 -32 -21 -121
-76 -198 -122 -326 -194 -655 -409 -850 -555 -222 -166 -367 -328 -411 -457
-71 -210 55 -389 322 -457 194 -50 414 -68 609 -51 220 18 294 30 476 76 281
70 558 205 783 381 237 186 459 480 570 756 54 134 126 384 126 435 0 4 -19
-36 -43 -88 -160 -355 -462 -646 -882 -851 -303 -147 -656 -230 -985 -230
-189 0 -360 11 -360 22 0 5 6 9 13 9 14 0 281 105 531 210 256 106 603 287
861 448 302 189 545 397 692 592 83 109 157 250 157 297 0 18 3 28 7 22 4 -7
10 2 14 20 4 18 4 35 1 38 -3 4 -6 -5 -7 -18 0 -22 -1 -23 -9 -4 -8 18 -9 18
-9 2 -1 -16 -3 -16 -15 -5 -8 8 -16 23 -18 34 -2 12 -14 -11 -32 -59 -90 -246
-410 -565 -803 -799 -154 -92 -183 -106 -206 -100 -12 2 18 28 100 84 167 114
519 398 493 398 -5 0 -12 -5 -15 -10 -4 -6 -12 -5 -20 4 -8 8 -20 16 -27 19
-8 3 16 35 63 83 178 185 345 438 364 552 4 23 5 42 3 42 -3 0 -15 -24 -29
-52z"/>
<path d="M6856 6362 l-19 -27 24 22 c12 12 21 24 18 27 -2 2 -13 -8 -23 -22z"/>
<path d="M5959 6343 c-13 -16 -12 -17 4 -4 16 13 21 21 13 21 -2 0 -10 -8 -17
-17z"/>
<path d="M4766 3759 c-148 -24 -261 -99 -307 -201 -33 -76 -34 -221 -1 -294
41 -90 124 -151 258 -191 51 -15 112 -17 479 -19 409 -1 421 -1 462 -23 56
-28 77 -68 71 -137 -5 -63 -18 -80 -78 -108 -44 -20 -61 -21 -622 -24 l-578
-3 0 -115 0 -115 628 3 c617 3 628 4 692 25 175 59 252 167 254 353 1 114 -22
179 -84 241 -54 54 -100 80 -185 105 -51 14 -124 18 -485 23 -453 7 -468 8
-513 58 -42 47 -29 141 22 168 65 33 149 37 651 34 l495 -4 3 118 3 117 -558
-1 c-307 -1 -580 -5 -607 -10z"/>
<path d="M2600 3645 l0 -115 330 0 331 0 -2 -512 -2 -513 151 -3 152 -3 0 516
0 515 325 0 325 0 0 115 0 115 -805 0 -805 0 0 -115z"/>
<path d="M6312 3283 c3 -433 5 -482 22 -525 23 -63 97 -143 157 -174 102 -51
134 -54 682 -54 l508 0 -3 117 -3 117 -421 -3 c-519 -3 -572 4 -620 83 -18 29
-19 61 -22 474 l-3 442 -150 0 -150 0 3 -477z"/>
<path d="M2413 2032 l-33 -3 0 -125 c0 -110 -2 -126 -20 -144 -46 -46 -122
-32 -146 26 -9 21 -14 72 -14 139 l0 105 -31 0 -31 0 4 -139 c3 -139 3 -140
33 -171 78 -82 236 -53 265 48 6 20 10 89 8 152 l-3 115 -32 -3z"/>
<path d="M3654 2029 c-99 -29 -149 -166 -96 -266 46 -86 175 -114 275 -60 l37
21 0 78 0 78 -75 0 -75 0 0 -29 c0 -28 3 -30 43 -33 39 -3 42 -5 42 -33 0 -26
-5 -32 -39 -43 -73 -23 -138 9 -156 79 -29 107 71 190 170 142 l39 -20 23 24
c23 24 23 25 3 36 -60 35 -128 45 -191 26z"/>
<path d="M4182 2020 c-52 -24 -69 -58 -52 -112 12 -42 34 -57 123 -83 70 -20
92 -49 57 -77 -29 -23 -64 -23 -119 2 -41 19 -45 19 -63 4 -25 -23 -23 -27 20
-51 114 -63 242 -22 242 78 0 54 -30 82 -118 108 -75 23 -93 42 -66 72 21 23
65 24 105 3 28 -14 32 -14 50 2 27 25 24 33 -23 54 -54 25 -102 25 -156 0z"/>
<path d="M4593 2029 c-105 -30 -154 -175 -93 -274 45 -72 168 -102 253 -60
107 51 129 217 39 298 -45 41 -130 56 -199 36z m137 -78 c37 -27 51 -60 47
-109 -6 -52 -36 -88 -88 -103 -77 -24 -160 55 -145 136 8 42 48 92 79 98 35 8
80 -2 107 -22z"/>
<path d="M6073 2034 c-10 -4 -13 -50 -13 -180 l0 -174 33 0 32 0 0 178 c0 170
-1 177 -20 179 -11 1 -26 -1 -32 -3z"/>
<path d="M6341 2027 c-109 -35 -153 -177 -86 -278 31 -47 86 -73 155 -73 108
0 179 64 188 168 4 56 -17 114 -55 148 -48 44 -130 58 -202 35z m139 -75 c37
-28 51 -61 47 -110 -12 -114 -156 -148 -217 -50 -38 61 -11 150 55 179 28 12
85 3 115 -19z"/>
<path d="M6973 2033 l-33 -4 0 -112 -1 -112 -34 40 c-19 22 -58 72 -87 112
-49 67 -56 72 -90 73 l-38 0 0 -175 0 -175 35 0 35 0 0 118 1 117 40 -45 c21
-25 63 -77 92 -117 46 -63 56 -72 85 -72 l32 -1 0 180 c0 99 -1 179 -2 178 -2
0 -18 -3 -35 -5z"/>
<path d="M7183 2029 c-66 -20 -94 -99 -53 -152 19 -25 33 -30 127 -56 56 -15
75 -47 43 -73 -29 -24 -76 -23 -124 3 l-39 21 -21 -22 -21 -21 25 -19 c14 -11
48 -24 76 -30 126 -27 225 51 179 139 -18 35 -48 53 -120 70 -58 15 -75 26
-75 52 0 31 43 45 93 30 63 -18 68 -18 84 6 14 20 13 23 -15 37 -38 20 -119
28 -159 15z"/>
<path d="M1760 2000 c0 -30 1 -30 55 -30 l55 0 0 -145 0 -145 35 0 35 0 0 145
0 145 60 0 60 0 0 30 0 30 -150 0 -150 0 0 -30z"/>
<path d="M2555 1856 l0 -176 33 0 32 0 0 60 0 60 39 0 c37 0 42 -4 82 -60 39
-56 45 -60 80 -60 22 0 39 2 39 5 0 3 -18 30 -40 59 -22 29 -40 57 -40 63 0 5
11 15 26 21 32 15 58 75 50 117 -4 17 -18 43 -32 56 -24 22 -35 24 -147 27
l-122 4 0 -176z m217 97 c25 -23 22 -48 -9 -73 -21 -17 -38 -20 -82 -18 l-56
3 -3 53 -3 52 67 0 c49 0 73 -5 86 -17z"/>
<path d="M2950 1855 l0 -175 35 0 35 0 0 175 0 175 -35 0 -35 0 0 -175z"/>
<path d="M3130 1855 l0 -175 30 0 30 0 0 115 c0 63 3 115 8 114 4 0 47 -52 96
-115 76 -98 93 -114 117 -114 l29 0 0 175 0 175 -35 0 -34 0 -3 -110 -3 -111
-85 110 c-77 100 -88 110 -117 111 l-33 0 0 -175z"/>
<path d="M4940 1855 l0 -175 130 0 130 0 0 30 0 30 -95 0 -95 0 0 145 0 145
-35 0 -35 0 0 -175z"/>
<path d="M5272 1903 c5 -144 17 -181 71 -210 41 -22 132 -22 173 0 59 31 68
58 72 205 l4 132 -36 0 -36 0 0 -121 c0 -66 -5 -129 -10 -139 -16 -30 -81 -46
-116 -29 -44 22 -54 52 -54 177 l0 112 -36 0 -36 0 4 -127z"/>
<path d="M5670 2000 l0 -30 60 0 60 0 0 -145 0 -145 30 0 30 0 0 84 c0 45 3
111 6 145 l7 61 53 0 c53 0 54 0 54 30 l0 30 -150 0 -150 0 0 -30z"/>
<path d="M7628 1900 c-1 -52 -1 -123 0 -158 l4 -62 109 0 109 0 0 25 c0 25 -1
25 -85 25 l-85 0 0 135 0 135 -24 -2 c-24 -2 -24 -5 -28 -98z"/>
<path d="M7870 1970 c0 -30 1 -30 55 -30 l55 0 0 -130 0 -130 30 0 30 0 0 130
0 130 50 0 c49 0 50 1 50 30 l0 30 -135 0 -135 0 0 -30z"/>
<path d="M8263 1993 l-43 -4 0 -155 0 -154 89 0 c75 0 93 3 121 23 57 38 75
72 75 136 -1 118 -83 171 -242 154z m138 -63 c24 -13 49 -61 49 -95 0 -68 -52
-109 -131 -103 l-44 3 -3 103 -3 102 56 0 c31 0 65 -5 76 -10z"/>
</g>
</svg>
